# xmcd
#
# Track frame offsets:
#	150
#	17070
#	40490
#	60492
#	84096
#	111551
#	149465
#	191248
#	217844
#	253722
#	273419
#
# Disc length: 4073 seconds
#
# Revision: 1
# Processed by: cddbd v1.4b41PL3 Copyright (c) Steve Scherf et al.
# Submitted via: audiograbber 1.80
#
DISCID=9f0fe70b
DTITLE=Eric Clapton - Live in Rotterdam 2001
DYEAR=1900
DGENRE=
TTITLE0=Key to the Highway
TTITLE1=Reptile
TTITLE2=Tears in Heaven
TTITLE3=Bell Bottom Blues
TTITLE4=Change the World
TTITLE5=My Father's Eyes
TTITLE6=River of Tears
TTITLE7=Going Down Slow
TTITLE8=She's Gone
TTITLE9=Got You on my Mind
TTITLE10=Don't Let me be Lonely Tonight
EXTD=All tracks recorded live at Ahoy in Rotterdam, Holland on March 25th 2001.
EXTD=\n
EXTT0=
EXTT1=
EXTT2=
EXTT3=
EXTT4=
EXTT5=
EXTT6=
EXTT7=
EXTT8=
EXTT9=
EXTT10=
PLAYORDER=
